<mxfile host="app.diagrams.net" modified="2024-04-23T07:40:58.301Z" agent="Mozilla/5.0 (Windows NT 10.0; Win64; x64) AppleWebKit/537.36 (KHTML, like Gecko) Chrome/123.0.0.0 Safari/537.36" version="24.2.8" etag="q1fl4zX8rzl0QR_qYkFp" type="github">
  <diagram name="Страница — 1" id="kAXvHnxhBRg_91nGSeLs">
    <mxGraphModel>
      <root>
        <mxCell id="0" />
        <mxCell id="1" parent="0" />
      </root>
    </mxGraphModel>
  </diagram>
</mxfile>
